<svg xmlns="http://www.w3.org/2000/svg" width="80" height="80" viewBox="0 0 80 80">
    <g fill="none" fill-rule="evenodd">
        <circle cx="40" cy="40" r="40" fill="#00C0B6"/>
        <path fill="#FFF" fill-rule="nonzero" d="M54.478 19c-3.225 0-5.897 2.308-6.424 5.336H21.099c-.608 0-1.099.482-1.099 1.079s.491 1.08 1.099 1.08h26.946c.527 3.018 3.199 5.335 6.424 5.335 3.6 0 6.522-2.87 6.522-6.406 0-3.537-2.921-6.424-6.513-6.424zm0 10.662c-2.386 0-4.333-1.913-4.333-4.256s1.947-4.256 4.333-4.256c2.385 0 4.333 1.913 4.333 4.256s-1.948 4.256-4.333 4.256zm5.432 9.697c.599 0 1.09.483 1.09 1.062 0 .597-.491 1.08-1.099 1.08H32.955c-.527 3.027-3.199 5.335-6.424 5.335-3.592 0-6.522-2.87-6.522-6.406 0-3.537 2.921-6.406 6.522-6.406 3.225 0 5.897 2.316 6.424 5.335H59.91zm-33.379 5.336c2.394 0 4.333-1.913 4.333-4.256s-1.947-4.257-4.333-4.257c-2.385 0-4.333 1.914-4.333 4.257s1.948 4.256 4.333 4.256zm27.947 4.475c3.592 0 6.513 2.887 6.513 6.424C60.991 59.13 58.07 62 54.47 62c-3.225 0-5.897-2.317-6.424-5.336H21.1A1.089 1.089 0 0 1 20 55.585c0-.597.491-1.08 1.099-1.08h26.955c.527-3.027 3.199-5.335 6.424-5.335zm0 10.662c2.385 0 4.333-1.913 4.333-4.256s-1.948-4.256-4.333-4.256c-2.386 0-4.333 1.913-4.333 4.256s1.947 4.256 4.333 4.256z"/>
    </g>
</svg>
